:FULLY-SPECIFIED
:FORCE-ALL-JOINTS-BE-3DOF
:DEGREES
679
root 5.48495 17.9064 0.89864 28.5754 -36.6335 -9.68071
lfemur -32.9583 19.0368 -0.285743
ltibia 88.2685 0 0
lfoot -13.9761 8.90368 0
ltoes 27.7643 0 0
rfemur -31.8096 -13.2656 25.3216
rtibia 23.7605 0 0
rfoot 6.87312 -5.58836 0
rtoes 0.11528 0 0
lowerback 1.09827 -4.53333 -4.82588
upperback -1.84471 -6.19754 -1.88377
thorax -2.24529 -3.04894 0.890609
lowerneck -8.05945 -5.28412 -0.334487
upperneck 2.34946 -7.3106 5.85761
head 2.44302 -3.47795 1.59922
lclavicle 1.98409e-014 -5.72909e-016 0
lhumerus -0.574777 -46.9661 63.0346
lradius 77.7294 0 0
lwrist 29.5631 0 0
lhand -13.9934 -1.29973 0
lfingers 7.12502 0 0
lthumb 12.1217 28.0822 0
rclavicle 1.98409e-014 -5.72909e-016 0
rhumerus -46.4067 -13.0048 -37.9443
rradius 78.1406 0 0
rwrist -9.91857 0 0
rhand -33.179 -48.0871 0
rfingers 7.12502 0 0
rthumb -6.3864 -797.95 0
680
root 5.4832 18.0099 1.05343 28.8513 -38.3737 -10.1481
lfemur -34.0071 18.7288 1.44252
ltibia 91.0816 0 0
lfoot -12.5927 8.54354 0
ltoes 28.3994 0 0
rfemur -29.9891 -12.2049 24.4207
rtibia 21.3533 0 0
rfoot 7.99289 -5.07603 0
rtoes -0.372726 0 0
lowerback 1.18735 -4.49937 -4.70687
upperback -1.85235 -6.15782 -1.92786
thorax -2.3229 -3.03019 0.787603
lowerneck -7.95238 -5.2309 -0.308517
upperneck 2.44771 -7.24209 5.8029
head 2.44772 -3.44502 1.5816
lclavicle 1.6759e-014 8.97554e-016 0
lhumerus 1.75918 -45.3524 59.373
lradius 77.7628 0 0
lwrist 29.7392 0 0
lhand -14.6081 -1.61298 0
lfingers 7.12502 0 0
lthumb 11.5293 27.807 0
rclavicle 1.6759e-014 8.97554e-016 0
rhumerus -45.8157 -13.0343 -36.0739
rradius 79.6706 0 0
rwrist -9.79985 0 0
rhand -33.3823 -47.7229 0
rfingers 7.12502 0 0
rthumb -6.58265 -797.58 0
681
root 5.48115 18.1124 1.2101 29.0524 -40.0792 -10.5409
lfemur -35.0397 18.4141 3.14882
ltibia 93.8374 0 0
lfoot -11.2234 8.18346 0
ltoes 29.0234 0 0
rfemur -28.1872 -11.1605 23.518
rtibia 19.0104 0 0
rfoot 9.11042 -4.55687 0
rtoes -0.849632 0 0
lowerback 1.27598 -4.4613 -4.58669
upperback -1.85984 -6.11252 -1.97062
thorax -2.39985 -3.00867 0.685086
lowerneck -7.8464 -5.17959 -0.282903
upperneck 2.54612 -7.17612 5.74712
head 2.45259 -3.41335 1.56353
lclavicle 1.36947e-014 2.34364e-015 0
lhumerus 4.04807 -43.7413 55.7478
lradius 77.7824 0 0
lwrist 29.9093 0 0
lhand -15.22 -1.92421 0
lfingers 7.12502 0 0
lthumb 10.9397 27.5338 0
rclavicle 1.36947e-014 2.34364e-015 0
rhumerus -45.1884 -13.0504 -34.2304
rradius 81.198 0 0
rwrist -9.69046 0 0
rhand -33.5818 -47.3517 0
rfingers 7.12502 0 0
rthumb -6.7753 -797.204 0
682
root 5.47875 18.2136 1.36861 29.1718 -41.7454 -10.8506
lfemur -36.0521 18.0927 4.8269
ltibia 96.5241 0 0
lfoot -9.87282 7.82367 0
ltoes 29.6335 0 0
rfemur -26.4103 -10.137 22.616
rtibia 16.7431 0 0
rfoot 10.2219 -4.03345 0
rtoes -1.31239 0 0
lowerback 1.36375 -4.41886 -4.46562
upperback -1.86721 -6.06125 -2.01196
thorax -2.47587 -2.98419 0.58328
lowerneck -7.7419 -5.13038 -0.257789
upperneck 2.64375 -7.11292 5.69048
head 2.45747 -3.38309 1.54509
lclavicle 1.06549e-014 3.75782e-015 0
lhumerus 6.28145 -42.1383 52.172
lradius 77.7876 0 0
lwrist 30.0726 0 0
lhand -15.827 -2.23228 0
lfingers 7.12502 0 0
lthumb 10.3548 27.2634 0
rclavicle 1.06549e-014 3.75782e-015 0
rhumerus -44.5261 -13.0525 -32.4206
rradius 82.7161 0 0
rwrist -9.58932 0 0
rhand -33.7768 -46.9749 0
rfingers 7.12502 0 0
rthumb -6.96359 -796.822 0
